<!-- Generator: Adobe Illustrator 25.0.0, SVG Export Plug-In  -->
<svg version="1.1" xmlns="http://www.w3.org/2000/svg" xmlns:xlink="http://www.w3.org/1999/xlink" x="0px" y="0px" width="174.4px"
     height="77px" viewBox="0 0 174.4 77" style="overflow:visible;enable-background:new 0 0 174.4 77;" xml:space="preserve">
<style type="text/css">
	.st0{fill:#747474;}
	.st1{fill:none;stroke:#E59A23;stroke-linecap:round;stroke-miterlimit:10;}
	.st2{fill:#F3A000;}
</style>
    <defs>
</defs>
    <path class="st0" d="M102.1,20.1l-0.4,43c0,0.6-0.5,1.1-1.1,1.1h-1.8c-0.6,0-1.1-0.5-1.1-1.1l0.3-37.4c0-2.5,1.4-5.1,3.8-5.9
	C102.1,19.8,102.1,19.9,102.1,20.1z"/>
    <g>
	<g>
		<g>
			<path class="st0" d="M30,47.9c-1.2,0-2.2,1.1-2.1,2.3c0.7,6.2,3.8,8.8,7.4,8.8c1.5,0,2.7-0.2,3.8-0.6c1.2-0.4,2.5,0.3,2.7,1.6v0
				c0.1,0.9-0.3,1.8-1.1,2.2c-1.4,0.7-3.4,1.2-5.9,1.2C28.1,63.5,24,57,24,47.4c0-9.7,3.9-17.3,10.2-17.3c7.1,0,9,9.2,9,15.1
				c0,0.2,0,0.5,0,0.7c0,1.1-1,2-2.1,2H30z M37.3,43.7c1.3,0,2.2-1.1,2.1-2.4C39,38,37.6,34.2,34,34.2c-3.2,0-5,3.5-5.7,6.9
				c-0.3,1.3,0.7,2.5,2,2.5H37.3z"/>
            <path class="st0" d="M48.2,39.5c0-2.6,0-4.8-0.1-6.9c0-1,0.7-1.8,1.7-1.8h0c0.9,0,1.7,0.7,1.7,1.7l0.1,3.5h0.1
				c1.2-3,3.2-5.9,6.9-5.9c3,0,5.2,2.6,6.2,6.4H65c0.7-1.8,1.5-3.2,2.4-4.2c1.3-1.5,2.8-2.3,4.8-2.3c2.9,0,7.2,2.8,7.2,13.9v17.1
				c0,1-0.8,1.7-1.7,1.7h-0.4c-1,0-1.7-0.8-1.7-1.7V44.7c0-6.2-1.5-9.9-4.7-9.9c-2.3,0-4,2.5-4.7,5.3c-0.2,0.8-0.3,1.9-0.3,2.9v18.1
				c0,1-0.8,1.7-1.7,1.7h-0.4c-1,0-1.7-0.8-1.7-1.7V43.7c0-5.1-1.5-8.8-4.6-8.8c-2.5,0-4.3,2.9-4.9,5.8c-0.2,0.9-0.3,1.9-0.3,2.8
				v17.6c0,1-0.8,1.7-1.7,1.7H50c-1,0-1.7-0.8-1.7-1.7V39.5z"/>
            <path class="st0" d="M85.9,60.9V32.8c0-1.1,0.9-2,2-2h0c1.1,0,2,0.9,2,2v28.1c0,1.1-0.9,2-2,2h0C86.8,62.9,85.9,62,85.9,60.9z"/>
            <path class="st0" d="M108.2,15.8h1.8c0.6,0,1.1,0.5,1.1,1.1v44.8c0,0.6-0.5,1.1-1.1,1.1h-1.8c-0.6,0-1.1-0.5-1.1-1.1V16.9
				C107.1,16.3,107.6,15.8,108.2,15.8z"/>
            <path class="st0" d="M122.2,47.9c-1.2,0-2.2,1.1-2.1,2.3c0.7,6.2,3.8,8.8,7.4,8.8c1.5,0,2.7-0.2,3.8-0.6c1.2-0.4,2.5,0.3,2.7,1.6
				v0c0.1,0.9-0.3,1.8-1.1,2.2c-1.4,0.7-3.4,1.2-5.9,1.2c-6.7,0-10.7-6.5-10.7-16.2c0-9.7,3.9-17.3,10.2-17.3c7.1,0,9,9.2,9,15.1
				c0,0.2,0,0.5,0,0.7c0,1.1-1,2-2.1,2H122.2z M129.4,43.7c1.3,0,2.2-1.1,2.1-2.4c-0.4-3.4-1.8-7.1-5.4-7.1c-3.2,0-5,3.5-5.7,6.9
				c-0.3,1.3,0.7,2.5,2,2.5H129.4z"/>
            <path class="st0" d="M140.4,40.8c0-3.2,0-6.1-0.1-8.7c0-0.7,0.5-1.3,1.2-1.3h1c0.7,0,1.2,0.5,1.2,1.2l0.1,5.1h0.2
				c1-4.3,3.4-7,6-7c0.5,0,0.8,0.1,1.1,0.2v5.5c-0.4-0.1-0.8-0.2-1.4-0.2c-2.8,0-4.8,3.1-5.3,7.5c-0.1,0.8-0.2,1.7-0.2,2.7v15.9
				c0,0.7-0.6,1.2-1.2,1.2h-1.5c-0.7,0-1.2-0.6-1.2-1.2V40.8z"/>
            <path class="st0" d="M174.4,46.6c0,11.9-5.6,17-10.9,17c-5.9,0-10.5-6.4-10.5-16.5c0-10.7,4.8-17,10.8-17
				C170.2,30.1,174.4,36.8,174.4,46.6z M157.1,46.9c0,7,2.8,12.3,6.6,12.3c3.8,0,6.6-5.2,6.6-12.5c0-5.4-1.9-12.3-6.5-12.3
				C159.1,34.4,157.1,40.8,157.1,46.9z"/>
		</g>
	</g>
</g>
    <g>
	<line class="st1" x1="76.2" y1="17.4" x2="87.2" y2="29.4"/>
        <line class="st1" x1="100.2" y1="17.4" x2="89.2" y2="29.4"/>
        <path class="st2" d="M79.7,2.6c-5,3.5-7,9.4-5.8,14.7c0.5,2.3,3,3.7,5.1,2.8c5.6-2.5,11.9-2.5,17.5,0c2.3,1,4.9-0.4,5.4-2.8
		c1.1-5.3-0.8-11-5.7-14.6C91.3-0.8,84.6-0.9,79.7,2.6z"/>
</g>
    <g>
	<path class="st0" d="M0.1,61.2c0.7-2.1,2.9-3.1,5-2.5c1.4,0.5,3,0.8,4.6,0.8c4.5,0,6.7-2.3,6.7-5.1c0-3-1.8-4.6-6.4-6.3
		c-6.2-2.2-9.1-5.6-9.1-9.7c0-5.5,4.5-10.1,11.8-10.1c3.2,0,6,0.8,7.9,1.9c0.3,0.2,0.4,0.5,0.3,0.8l0,0.1c-0.7,2-2.8,3-4.8,2.4
		c-1.1-0.3-2.3-0.5-3.6-0.5c-3.7,0-5.7,2.1-5.7,4.7c0,2.8,2.1,4.1,6.5,5.8c6,2.3,9,5.2,9,10.3c0,6-4.7,10.3-12.8,10.3
		c-3.5,0-6.8-0.8-9.2-2.1C0.1,61.9-0.1,61.5,0.1,61.2L0.1,61.2z"/>
</g>
    <g>
	<path class="st2" d="M88.1,76.9c-5.7,0-11.4,0.1-17.1,0c-2.9,0-5-1.7-5.5-4.2c-0.5-2.4,0.5-4.6,2.6-5.8c1-0.6,2.1-0.7,3.2-0.7
		c11.2,0,22.5,0,33.7,0c3.8,0,6.2,2.2,6.2,5.4c-0.1,3.1-2.5,5.2-6.2,5.3C99.4,77,93.8,77,88.1,76.9C88.1,77,88.1,77,88.1,76.9z"/>
</g>
</svg>
