<!-- Generator: Adobe Illustrator 25.0.0, SVG Export Plug-In  -->
<svg version="1.1" xmlns="http://www.w3.org/2000/svg" xmlns:xlink="http://www.w3.org/1999/xlink" x="0px" y="0px" width="386px"
     height="105.7px" viewBox="0 0 386 105.7" style="overflow:visible;enable-background:new 0 0 386 105.7;" xml:space="preserve">
<style type="text/css">
	.st0{fill:#808080;}
	.st1{fill:#F3A000;}
	.st2{fill:#FFFFFF;}
</style>
    <defs>
</defs>
    <g>
	<g>
		<g>
			<path class="st0" d="M24.3,0c7.6,0.2,14.2,2.3,19,8.6c1.9,2.5,3.3,5.3,3.9,8.4c0.6,3.1-0.8,5.6-3.5,6.4c-3,0.8-5.6-0.6-6.7-3.6
				c-3.2-8.8-14.6-12.2-22.4-6.8c-4.1,2.9-4.1,8.4,0.1,11.5c3.2,2.3,6.9,3.4,10.6,4.6c3.8,1.2,7.5,2.4,11,4.3
				c7.9,4.3,11.7,11.8,10.2,20c-0.7,3.5-2.5,6.4-5.1,8.7c-9.8,8.8-28,7.9-36.9-1.8c-2.3-2.5-3.8-5.3-4.2-8.7c-0.4-2.9,1-5.1,3.6-5.8
				c2.7-0.7,5.2,0.5,6.4,3.1c3,6.4,8,9.3,15.1,8.7c2.7-0.2,5.3-0.8,7.6-2.4c4.1-2.9,4.2-8.5,0.2-11.4c-2.9-2.1-6.2-3.2-9.6-4.3
				c-3.3-1.1-6.7-2.1-10-3.5C7.7,33.5,3.2,29.7,1.4,23.5C-1,15,3.3,6.1,11.6,2.3C15.6,0.4,20,0,24.3,0z"/>
            <path class="st0" d="M152.9,21c-0.2-11.2-5.8-18.3-15.8-20.3c-2.6-0.5-5.3-0.7-8-0.6c-6.7,0.4-12.7,2.8-17.8,7.3
				c-1.9,1.7-2.5,3.8-1.6,6.1c0.8,2.1,2.4,3.2,4.6,3.4c1.8,0.2,3.2-0.8,4.5-1.9c4-3.1,8.4-4.8,13.5-4.3c7.2,0.7,9.7,3.4,9.8,10.7
				c0,3.4-0.1,3.5-3.3,2.3c-16.3-6.1-33.1,5.2-32.2,21.8c0.7,11.3,8.3,20.5,19.6,21.9c6.6,0.8,13.2,0.3,19.8,0.3
				c5,0,6.9-2.1,6.9-7.1c0-6.5,0-13.1,0-19.6C152.9,34.4,153,27.7,152.9,21z M142,54.7c0,1.5-0.8,2.3-2.3,2.3c-4,0-8.1,0.2-12-0.1
				c-7.2-0.7-11.3-6.8-10.2-14.5c1-6.3,7.7-10.5,14.7-9.3c6.2,1.1,9.9,5.4,9.9,11.6c0,1.3,0,2.7,0,4c0,0,0,0,0,0
				C142,50.7,142,52.7,142,54.7z"/>
            <path class="st0" d="M101.7,24.5C101.5,11.1,91,0.6,77.9,0.5C64,0.4,53.4,10.4,53,24.2c-0.2,6.9-0.2,13.9,0,20.9
				c0.6,17.4,18.1,28.4,34,21.5c3.7-1.6,3.8-1.5,3.8,2.6c0,9.5,0,18.9,0,28.4c0,1.3,0,2.5,0.3,3.7c0.5,2.6,2.6,4.3,5.1,4.4
				c2.6,0,4.8-1.8,5.3-4.5c0.2-1.1,0.2-2.3,0.2-3.5c0-12,0-24,0-35.9c0,0,0,0,0,0C101.7,49.3,101.8,36.9,101.7,24.5z M90.8,44.8
				c-0.2,7-5.5,12.5-12.5,13.1c-6.7,0.6-12.9-4.1-14.3-10.8c-0.7-3.2-0.4-6.5-0.4-9.8c0.1-4.9-0.5-9.9,0.3-14.8
				c0.9-5.5,4.3-9.3,9.6-10.8c5.4-1.5,10.1-0.1,13.9,4c2.2,2.4,3.3,5.2,3.3,8.4c0,3.4,0,6.9,0,10.3C90.8,37.9,90.9,41.4,90.8,44.8z"
            />
            <path class="st1" d="M184.1,68.1c-5.7,0-11.4,0.1-17.1,0c-2.9,0-5-1.7-5.5-4.2c-0.5-2.4,0.5-4.6,2.6-5.8c1-0.6,2.1-0.7,3.2-0.7
				c11.2,0,22.5,0,33.7,0c3.8,0,6.2,2.2,6.2,5.4c-0.1,3.1-2.5,5.2-6.2,5.3C195.3,68.1,189.7,68.1,184.1,68.1
				C184.1,68.1,184.1,68.1,184.1,68.1z"/>
		</g>
        <g>
			<path class="st2" d="M241.6,55.1c-1.2,0-2.2,1.1-2.1,2.3c0.7,6.2,3.8,8.8,7.4,8.8c1.5,0,2.7-0.2,3.8-0.6c1.2-0.4,2.5,0.3,2.7,1.6
				v0c0.1,0.9-0.3,1.8-1.1,2.2c-1.4,0.7-3.4,1.2-5.9,1.2c-6.7,0-10.7-6.5-10.7-16.2c0-9.7,3.9-17.3,10.2-17.3c7.1,0,9,9.2,9,15.1
				c0,0.2,0,0.5,0,0.7c0,1.1-1,2-2.1,2H241.6z M248.9,50.9c1.3,0,2.2-1.1,2.1-2.4c-0.4-3.4-1.8-7.1-5.4-7.1c-3.2,0-5,3.5-5.7,6.9
				c-0.3,1.3,0.7,2.5,2,2.5H248.9z"/>
            <path class="st2" d="M259.8,46.7c0-2.6,0-4.8-0.1-6.9c0-1,0.7-1.8,1.7-1.8l0,0c0.9,0,1.7,0.7,1.7,1.7l0.1,3.5h0.1
				c1.2-3,3.2-5.9,6.9-5.9c3,0,5.2,2.6,6.2,6.4h0.1c0.7-1.8,1.5-3.2,2.4-4.2c1.3-1.5,2.8-2.3,4.8-2.3c2.9,0,7.2,2.8,7.2,13.9v17.1
				c0,1-0.8,1.7-1.7,1.7h-0.4c-1,0-1.7-0.8-1.7-1.7V51.9c0-6.2-1.5-9.9-4.7-9.9c-2.3,0-4,2.5-4.7,5.3c-0.2,0.8-0.3,1.9-0.3,2.9v18.1
				c0,1-0.8,1.7-1.7,1.7h-0.4c-1,0-1.7-0.8-1.7-1.7V50.9c0-5.1-1.5-8.8-4.6-8.8c-2.5,0-4.3,2.9-4.9,5.8c-0.2,0.9-0.3,1.9-0.3,2.8
				v17.6c0,1-0.8,1.7-1.7,1.7h-0.4c-1,0-1.7-0.8-1.7-1.7V46.7z"/>
            <path class="st2" d="M297.5,68.1V40c0-1.1,0.9-2,2-2l0,0c1.1,0,2,0.9,2,2v28.1c0,1.1-0.9,2-2,2l0,0
				C298.4,70.1,297.5,69.2,297.5,68.1z"/>
            <path class="st2" d="M309.1,23.1h1.8c0.6,0,1.1,0.5,1.1,1.1V69c0,0.6-0.5,1.1-1.1,1.1h-1.8c-0.6,0-1.1-0.5-1.1-1.1V24.1
				C308,23.5,308.5,23.1,309.1,23.1z"/>
            <path class="st2" d="M319.8,23.1h1.8c0.6,0,1.1,0.5,1.1,1.1V69c0,0.6-0.5,1.1-1.1,1.1h-1.8c-0.6,0-1.1-0.5-1.1-1.1V24.2
				C318.7,23.6,319.2,23.1,319.8,23.1z"/>
            <path class="st2" d="M333.8,55.1c-1.2,0-2.2,1.1-2.1,2.3c0.7,6.2,3.8,8.8,7.4,8.8c1.5,0,2.7-0.2,3.8-0.6c1.2-0.4,2.5,0.3,2.7,1.6
				v0c0.1,0.9-0.3,1.8-1.1,2.2c-1.4,0.7-3.4,1.2-5.9,1.2c-6.7,0-10.7-6.5-10.7-16.2c0-9.7,3.9-17.3,10.2-17.3c7.1,0,9,9.2,9,15.1
				c0,0.2,0,0.5,0,0.7c0,1.1-1,2-2.1,2H333.8z M341,50.9c1.3,0,2.2-1.1,2.1-2.4c-0.4-3.4-1.8-7.1-5.4-7.1c-3.2,0-5,3.5-5.7,6.9
				c-0.3,1.3,0.7,2.5,2,2.5H341z"/>
            <path class="st2" d="M352,48c0-3.2,0-6.1-0.1-8.7c0-0.7,0.5-1.3,1.2-1.3h1c0.7,0,1.2,0.5,1.2,1.2l0.1,5.1h0.2c1-4.3,3.4-7,6-7
				c0.5,0,0.8,0.1,1.1,0.2V43c-0.4-0.1-0.8-0.2-1.4-0.2c-2.8,0-4.8,3.1-5.3,7.5c-0.1,0.8-0.2,1.7-0.2,2.7v15.9
				c0,0.7-0.6,1.2-1.2,1.2h-1.5c-0.7,0-1.2-0.6-1.2-1.2V48z"/>
            <path class="st2" d="M386,53.8c0,11.9-5.6,17-10.9,17c-5.9,0-10.5-6.4-10.5-16.5c0-10.7,4.8-17,10.8-17
				C381.8,37.3,386,44,386,53.8z M368.7,54.1c0,7,2.8,12.3,6.6,12.3c3.8,0,6.6-5.2,6.6-12.5c0-5.4-1.9-12.3-6.5-12.3
				C370.7,41.7,368.7,48,368.7,54.1z"/>
		</g>
	</g>
        <path class="st1" d="M295.4,24.2c-2.3,1.6-3.2,4.3-2.7,6.8c0.2,1.1,1.4,1.7,2.4,1.3c2.6-1.1,5.5-1.1,8.1,0c1,0.5,2.3-0.2,2.5-1.3
		c0.5-2.4-0.4-5.1-2.6-6.7C300.8,22.7,297.6,22.7,295.4,24.2z"/>
        <path class="st2" d="M221.5,36.7c3.8,0.1,7.2,1.2,9.6,4.3c1,1.3,1.6,2.7,1.9,4.2c0.3,1.6-0.4,2.8-1.8,3.2c-1.5,0.4-2.8-0.3-3.4-1.8
		c-1.6-4.4-7.3-6.1-11.3-3.4c-2.1,1.5-2.1,4.2,0,5.8c1.6,1.2,3.5,1.7,5.3,2.3c1.9,0.6,3.8,1.2,5.5,2.1c4,2.2,5.9,5.9,5.1,10.1
		c-0.3,1.8-1.2,3.2-2.6,4.4c-5,4.4-14.1,4-18.6-0.9c-1.1-1.2-1.9-2.7-2.1-4.4c-0.2-1.5,0.5-2.6,1.8-2.9c1.4-0.4,2.6,0.2,3.2,1.6
		c1.5,3.2,4,4.7,7.6,4.4c1.4-0.1,2.7-0.4,3.8-1.2c2.1-1.4,2.1-4.3,0.1-5.8c-1.5-1.1-3.1-1.6-4.8-2.2c-1.7-0.6-3.4-1.1-5-1.8
		c-2.8-1.2-5.1-3.1-6-6.3c-1.2-4.3,0.9-8.7,5.1-10.7C217.1,36.9,219.3,36.6,221.5,36.7z"/>
</g>
</svg>
